# MagicaVoxel @ Ephtracy

# group
o 

# material
mtllib Chaise.mtl
usemtl palette

# normals
vn -1 0 0
vn 1 0 0
vn 0 0 1
vn 0 0 -1
vn 0 -1 0
vn 0 1 0

# texcoords
vt 0.951172 0.5
vt 0.970703 0.5
vt 0.982422 0.5
vt 0.986328 0.5

# verts
v -0.8 0 1
v -0.8 0 0.8
v -0.8 0 -0.8
v -0.8 0 -1
v -0.8 1.5 0.8
v -0.8 1.5 -0.8
v -0.8 1.6 1
v -0.8 1.6 -1
v -0.7 1.6 0.4
v -0.7 1.6 -0.4
v -0.7 1.7 0.4
v -0.7 1.7 -0.4
v -0.6 1.6 0.8
v -0.6 1.6 0.4
v -0.6 1.6 -0.4
v -0.6 1.6 -0.8
v -0.6 1.7 0.8
v -0.6 1.7 0.4
v -0.6 1.7 -0.4
v -0.6 1.7 -0.8
v -0.1 1.6 0.9
v -0.1 1.6 0.8
v -0.1 1.6 -0.8
v -0.1 1.6 -0.9
v -0.1 1.7 0.9
v -0.1 1.7 0.8
v -0.1 1.7 -0.8
v -0.1 1.7 -0.9
v 0.5 0 1
v 0.5 0 0.8
v 0.5 0 -0.8
v 0.5 0 -1
v 0.5 1.5 1
v 0.5 1.5 0.8
v 0.5 1.5 -0.8
v 0.5 1.5 -1
v 0.6 1.6 1
v 0.6 1.6 0.9
v 0.6 1.6 -0.9
v 0.6 1.6 -1
v 0.6 1.7 1
v 0.6 1.7 0.9
v 0.6 1.7 0.8
v 0.6 1.7 -0.8
v 0.6 1.7 -0.9
v 0.6 1.7 -1
v 0.6 1.9 0.7
v 0.6 1.9 0.1
v 0.6 1.9 -0.1
v 0.6 1.9 -0.7
v 0.6 2 0.6
v 0.6 2 0.2
v 0.6 2 -0.2
v 0.6 2 -0.6
v 0.6 3.1 0.6
v 0.6 3.1 0.5
v 0.6 3.1 0.3
v 0.6 3.1 0.2
v 0.6 3.1 -0.2
v 0.6 3.1 -0.3
v 0.6 3.1 -0.5
v 0.6 3.1 -0.6
v 0.6 3.2 0.7
v 0.6 3.2 0.6
v 0.6 3.2 0.5
v 0.6 3.2 0.3
v 0.6 3.2 0.2
v 0.6 3.2 0.1
v 0.6 3.2 -0.1
v 0.6 3.2 -0.2
v 0.6 3.2 -0.3
v 0.6 3.2 -0.5
v 0.6 3.2 -0.6
v 0.6 3.2 -0.7
v 0.6 3.3 0.6
v 0.6 3.3 0.2
v 0.6 3.3 -0.2
v 0.6 3.3 -0.6
v 0.6 3.4 1
v 0.6 3.4 0.9
v 0.6 3.4 -0.9
v 0.6 3.4 -1
v 0.6 3.5 0.9
v 0.6 3.5 0.7
v 0.6 3.5 -0.7
v 0.6 3.5 -0.9
v 0.6 3.6 1
v 0.6 3.6 0.7
v 0.6 3.6 0.6
v 0.6 3.6 -0.6
v 0.6 3.6 -0.7
v 0.6 3.6 -1
v 0.6 3.8 0.6
v 0.6 3.8 -0.6
v 0.6 3.9 0.7
v 0.6 3.9 -0.7
v -0.5 0 1
v -0.5 0 0.8
v -0.5 0 -0.8
v -0.5 0 -1
v -0.5 1.5 1
v -0.5 1.5 0.8
v -0.5 1.5 -0.8
v -0.5 1.5 -1
v 0.8 0 1
v 0.8 0 0.8
v 0.8 0 -0.8
v 0.8 0 -1
v 0.8 1.5 0.8
v 0.8 1.5 -0.8
v 0.8 1.6 1
v 0.8 1.6 -1
v 0.8 1.7 1
v 0.8 1.7 -1
v 0.8 1.9 0.7
v 0.8 1.9 0.1
v 0.8 1.9 -0.1
v 0.8 1.9 -0.7
v 0.8 2 0.6
v 0.8 2 0.2
v 0.8 2 -0.2
v 0.8 2 -0.6
v 0.8 3.1 0.6
v 0.8 3.1 0.5
v 0.8 3.1 0.3
v 0.8 3.1 0.2
v 0.8 3.1 -0.2
v 0.8 3.1 -0.3
v 0.8 3.1 -0.5
v 0.8 3.1 -0.6
v 0.8 3.2 0.7
v 0.8 3.2 0.6
v 0.8 3.2 0.5
v 0.8 3.2 0.3
v 0.8 3.2 0.2
v 0.8 3.2 0.1
v 0.8 3.2 -0.1
v 0.8 3.2 -0.2
v 0.8 3.2 -0.3
v 0.8 3.2 -0.5
v 0.8 3.2 -0.6
v 0.8 3.2 -0.7
v 0.8 3.3 0.6
v 0.8 3.3 0.2
v 0.8 3.3 -0.2
v 0.8 3.3 -0.6
v 0.8 3.4 1
v 0.8 3.4 0.7
v 0.8 3.4 -0.7
v 0.8 3.4 -1
v 0.8 3.6 1
v 0.8 3.6 0.7
v 0.8 3.6 0.6
v 0.8 3.6 -0.6
v 0.8 3.6 -0.7
v 0.8 3.6 -1
v 0.8 3.8 0.6
v 0.8 3.8 -0.6
v 0.8 3.9 0.7
v 0.8 3.9 -0.7
v -0.8 0 1
v -0.8 1.6 1
v -0.5 0 1
v -0.5 1.5 1
v 0.5 0 1
v 0.5 1.5 1
v 0.6 1.6 1
v 0.6 1.7 1
v 0.6 3.4 1
v 0.6 3.6 1
v 0.8 0 1
v 0.8 1.6 1
v 0.8 1.7 1
v 0.8 3.4 1
v 0.8 3.6 1
v -0.1 1.6 0.9
v -0.1 1.7 0.9
v 0.6 1.6 0.9
v 0.6 1.7 0.9
v -0.6 1.6 0.8
v -0.6 1.7 0.8
v -0.1 1.6 0.8
v -0.1 1.7 0.8
v 0.6 3.6 0.7
v 0.6 3.9 0.7
v 0.8 3.6 0.7
v 0.8 3.9 0.7
v -0.7 1.6 0.4
v -0.7 1.7 0.4
v -0.6 1.6 0.4
v -0.6 1.7 0.4
v 0.6 3.1 0.3
v 0.6 3.2 0.3
v 0.8 3.1 0.3
v 0.8 3.2 0.3
v 0.6 2 0.2
v 0.6 3.1 0.2
v 0.8 2 0.2
v 0.8 3.1 0.2
v 0.6 3.1 -0.5
v 0.6 3.2 -0.5
v 0.8 3.1 -0.5
v 0.8 3.2 -0.5
v 0.6 2 -0.6
v 0.6 3.1 -0.6
v 0.8 2 -0.6
v 0.8 3.1 -0.6
v -0.8 0 -0.8
v -0.8 1.5 -0.8
v -0.5 0 -0.8
v -0.5 1.5 -0.8
v 0.5 0 -0.8
v 0.5 1.5 -0.8
v 0.8 0 -0.8
v 0.8 1.5 -0.8
v -0.8 0 0.8
v -0.8 1.5 0.8
v -0.5 0 0.8
v -0.5 1.5 0.8
v 0.5 0 0.8
v 0.5 1.5 0.8
v 0.8 0 0.8
v 0.8 1.5 0.8
v 0.6 2 0.6
v 0.6 3.1 0.6
v 0.8 2 0.6
v 0.8 3.1 0.6
v 0.6 3.1 0.5
v 0.6 3.2 0.5
v 0.8 3.1 0.5
v 0.8 3.2 0.5
v 0.6 2 -0.2
v 0.6 3.1 -0.2
v 0.8 2 -0.2
v 0.8 3.1 -0.2
v 0.6 3.1 -0.3
v 0.6 3.2 -0.3
v 0.8 3.1 -0.3
v 0.8 3.2 -0.3
v -0.7 1.6 -0.4
v -0.7 1.7 -0.4
v -0.6 1.6 -0.4
v -0.6 1.7 -0.4
v 0.6 3.6 -0.7
v 0.6 3.9 -0.7
v 0.8 3.6 -0.7
v 0.8 3.9 -0.7
v -0.6 1.6 -0.8
v -0.6 1.7 -0.8
v -0.1 1.6 -0.8
v -0.1 1.7 -0.8
v -0.1 1.6 -0.9
v -0.1 1.7 -0.9
v 0.6 1.6 -0.9
v 0.6 1.7 -0.9
v -0.8 0 -1
v -0.8 1.6 -1
v -0.5 0 -1
v -0.5 1.5 -1
v 0.5 0 -1
v 0.5 1.5 -1
v 0.6 1.6 -1
v 0.6 1.7 -1
v 0.6 3.4 -1
v 0.6 3.6 -1
v 0.8 0 -1
v 0.8 1.6 -1
v 0.8 1.7 -1
v 0.8 3.4 -1
v 0.8 3.6 -1
v -0.8 0 1
v -0.5 0 1
v 0.5 0 1
v 0.8 0 1
v -0.8 0 0.8
v -0.5 0 0.8
v 0.5 0 0.8
v 0.8 0 0.8
v -0.8 0 -0.8
v -0.5 0 -0.8
v 0.5 0 -0.8
v 0.8 0 -0.8
v -0.8 0 -1
v -0.5 0 -1
v 0.5 0 -1
v 0.8 0 -1
v -0.5 1.5 1
v 0.5 1.5 1
v -0.8 1.5 0.8
v -0.5 1.5 0.8
v 0.5 1.5 0.8
v 0.8 1.5 0.8
v -0.8 1.5 -0.8
v -0.5 1.5 -0.8
v 0.5 1.5 -0.8
v 0.8 1.5 -0.8
v -0.5 1.5 -1
v 0.5 1.5 -1
v 0.6 3.1 0.6
v 0.8 3.1 0.6
v 0.6 3.1 0.5
v 0.8 3.1 0.5
v 0.6 3.1 0.3
v 0.8 3.1 0.3
v 0.6 3.1 0.2
v 0.8 3.1 0.2
v 0.6 3.1 -0.2
v 0.8 3.1 -0.2
v 0.6 3.1 -0.3
v 0.8 3.1 -0.3
v 0.6 3.1 -0.5
v 0.8 3.1 -0.5
v 0.6 3.1 -0.6
v 0.8 3.1 -0.6
v 0.6 3.2 0.5
v 0.8 3.2 0.5
v 0.6 3.2 0.3
v 0.8 3.2 0.3
v 0.6 3.2 -0.3
v 0.8 3.2 -0.3
v 0.6 3.2 -0.5
v 0.8 3.2 -0.5
v -0.8 1.6 1
v 0.6 1.6 1
v -0.1 1.6 0.9
v 0.6 1.6 0.9
v -0.6 1.6 0.8
v -0.1 1.6 0.8
v -0.7 1.6 0.4
v -0.6 1.6 0.4
v -0.7 1.6 -0.4
v -0.6 1.6 -0.4
v -0.6 1.6 -0.8
v -0.1 1.6 -0.8
v -0.1 1.6 -0.9
v 0.6 1.6 -0.9
v -0.8 1.6 -1
v 0.6 1.6 -1
v -0.1 1.7 0.9
v 0.6 1.7 0.9
v -0.6 1.7 0.8
v -0.1 1.7 0.8
v 0.4 1.7 0.8
v 0.5 1.7 0.8
v 0.6 1.7 0.8
v -0.4 1.7 0.7
v -0.1 1.7 0.7
v -0.5 1.7 0.6
v -0.4 1.7 0.6
v -0.3 1.7 0.6
v 0.3 1.7 0.6
v 0.4 1.7 0.6
v 0.5 1.7 0.6
v -0.3 1.7 0.5
v -0.2 1.7 0.5
v 0.2 1.7 0.5
v 0.3 1.7 0.5
v -0.7 1.7 0.4
v -0.6 1.7 0.4
v -0.5 1.7 0.4
v -0.4 1.7 0.4
v -0.3 1.7 0.4
v 0.3 1.7 0.4
v 0.4 1.7 0.4
v -0.3 1.7 0.3
v -0.2 1.7 0.3
v -0.1 1.7 0.3
v 0.1 1.7 0.3
v 0.2 1.7 0.3
v 0.3 1.7 0.3
v -0.1 1.7 0.2
v 0.1 1.7 0.2
v -0.2 1.7 0.1
v -0.1 1.7 0.1
v 0.1 1.7 0.1
v 0.2 1.7 0.1
v -0.2 1.7 -0.1
v -0.1 1.7 -0.1
v 0.1 1.7 -0.1
v 0.2 1.7 -0.1
v -0.1 1.7 -0.2
v 0.1 1.7 -0.2
v -0.3 1.7 -0.3
v -0.2 1.7 -0.3
v -0.1 1.7 -0.3
v 0.1 1.7 -0.3
v 0.2 1.7 -0.3
v 0.3 1.7 -0.3
v -0.7 1.7 -0.4
v -0.6 1.7 -0.4
v -0.5 1.7 -0.4
v -0.4 1.7 -0.4
v -0.3 1.7 -0.4
v 0.3 1.7 -0.4
v 0.4 1.7 -0.4
v -0.3 1.7 -0.5
v -0.2 1.7 -0.5
v 0.2 1.7 -0.5
v 0.3 1.7 -0.5
v -0.5 1.7 -0.6
v -0.4 1.7 -0.6
v -0.3 1.7 -0.6
v 0.3 1.7 -0.6
v 0.4 1.7 -0.6
v 0.5 1.7 -0.6
v -0.4 1.7 -0.7
v -0.1 1.7 -0.7
v -0.6 1.7 -0.8
v -0.1 1.7 -0.8
v 0.4 1.7 -0.8
v 0.5 1.7 -0.8
v 0.6 1.7 -0.8
v -0.1 1.7 -0.9
v 0.6 1.7 -0.9
v 0.6 2 0.6
v 0.8 2 0.6
v 0.6 2 0.2
v 0.8 2 0.2
v 0.6 2 -0.2
v 0.8 2 -0.2
v 0.6 2 -0.6
v 0.8 2 -0.6
v 0.6 3.6 1
v 0.8 3.6 1
v 0.6 3.6 0.7
v 0.8 3.6 0.7
v 0.6 3.6 -0.7
v 0.8 3.6 -0.7
v 0.6 3.6 -1
v 0.8 3.6 -1
v 0.6 3.9 0.7
v 0.8 3.9 0.7
v 0.6 3.9 -0.7
v 0.8 3.9 -0.7

# faces
f 5/3/1 2/3/1 1/3/1
f 6/3/1 4/3/1 3/3/1
f 7/3/1 5/3/1 1/3/1
f 7/3/1 6/3/1 5/3/1
f 8/3/1 4/3/1 6/3/1
f 8/3/1 6/3/1 7/3/1
f 11/1/1 10/1/1 9/1/1
f 12/1/1 10/1/1 11/1/1
f 17/1/1 14/1/1 13/1/1
f 18/1/1 14/1/1 17/1/1
f 19/1/1 16/1/1 15/1/1
f 20/1/1 16/1/1 19/1/1
f 25/1/1 22/1/1 21/1/1
f 26/1/1 22/1/1 25/1/1
f 27/1/1 24/1/1 23/1/1
f 28/1/1 24/1/1 27/1/1
f 33/3/1 30/3/1 29/3/1
f 34/3/1 30/3/1 33/3/1
f 35/3/1 32/3/1 31/3/1
f 36/3/1 32/3/1 35/3/1
f 41/4/1 38/4/1 37/4/1
f 42/4/1 38/4/1 41/4/1
f 45/4/1 40/4/1 39/4/1
f 46/4/1 40/4/1 45/4/1
f 47/3/1 44/3/1 43/3/1
f 47/3/1 42/3/1 41/3/1
f 47/3/1 46/3/1 45/3/1
f 47/3/1 45/3/1 44/3/1
f 47/3/1 43/3/1 42/3/1
f 48/3/1 46/3/1 47/3/1
f 49/3/1 46/3/1 48/3/1
f 50/3/1 46/3/1 49/3/1
f 51/4/1 48/4/1 47/4/1
f 52/4/1 48/4/1 51/4/1
f 53/4/1 50/4/1 49/4/1
f 54/4/1 50/4/1 53/4/1
f 55/4/1 51/4/1 47/4/1
f 58/4/1 48/4/1 52/4/1
f 59/4/1 53/4/1 49/4/1
f 62/4/1 50/4/1 54/4/1
f 63/3/1 47/3/1 41/3/1
f 63/4/1 56/4/1 55/4/1
f 63/4/1 55/4/1 47/4/1
f 64/4/1 56/4/1 63/4/1
f 65/4/1 56/4/1 64/4/1
f 66/4/1 58/4/1 57/4/1
f 67/4/1 48/4/1 58/4/1
f 67/4/1 58/4/1 66/4/1
f 68/3/1 49/3/1 48/3/1
f 68/4/1 48/4/1 67/4/1
f 69/4/1 60/4/1 59/4/1
f 69/3/1 49/3/1 68/3/1
f 69/4/1 59/4/1 49/4/1
f 70/4/1 60/4/1 69/4/1
f 71/4/1 60/4/1 70/4/1
f 72/4/1 62/4/1 61/4/1
f 73/4/1 50/4/1 62/4/1
f 73/4/1 62/4/1 72/4/1
f 74/3/1 46/3/1 50/3/1
f 74/4/1 50/4/1 73/4/1
f 75/4/1 67/4/1 66/4/1
f 75/4/1 65/4/1 64/4/1
f 75/4/1 66/4/1 65/4/1
f 75/3/1 64/3/1 63/3/1
f 76/3/1 68/3/1 67/3/1
f 76/4/1 67/4/1 75/4/1
f 76/3/1 70/3/1 69/3/1
f 76/3/1 69/3/1 68/3/1
f 77/4/1 71/4/1 70/4/1
f 77/3/1 70/3/1 76/3/1
f 77/4/1 73/4/1 72/4/1
f 77/4/1 72/4/1 71/4/1
f 78/3/1 74/3/1 73/3/1
f 78/4/1 73/4/1 77/4/1
f 79/3/1 76/3/1 75/3/1
f 79/3/1 63/3/1 41/3/1
f 79/3/1 78/3/1 77/3/1
f 79/3/1 75/3/1 63/3/1
f 79/3/1 77/3/1 76/3/1
f 80/3/1 78/3/1 79/3/1
f 81/3/1 74/3/1 78/3/1
f 81/3/1 78/3/1 80/3/1
f 81/3/1 46/3/1 74/3/1
f 82/3/1 46/3/1 81/3/1
f 83/4/1 80/4/1 79/4/1
f 83/3/1 81/3/1 80/3/1
f 84/3/1 81/3/1 83/3/1
f 85/3/1 81/3/1 84/3/1
f 86/4/1 82/4/1 81/4/1
f 86/3/1 81/3/1 85/3/1
f 87/4/1 83/4/1 79/4/1
f 87/4/1 84/4/1 83/4/1
f 88/3/1 85/3/1 84/3/1
f 88/4/1 84/4/1 87/4/1
f 89/3/1 85/3/1 88/3/1
f 90/3/1 85/3/1 89/3/1
f 91/4/1 86/4/1 85/4/1
f 91/3/1 85/3/1 90/3/1
f 92/4/1 82/4/1 86/4/1
f 92/4/1 86/4/1 91/4/1
f 93/3/1 90/3/1 89/3/1
f 93/4/1 89/4/1 88/4/1
f 94/4/1 91/4/1 90/4/1
f 94/3/1 90/3/1 93/3/1
f 95/4/1 93/4/1 88/4/1
f 95/4/1 94/4/1 93/4/1
f 96/4/1 91/4/1 94/4/1
f 96/4/1 94/4/1 95/4/1
f 97/3/2 98/3/2 101/3/2
f 101/3/2 98/3/2 102/3/2
f 99/3/2 100/3/2 103/3/2
f 103/3/2 100/3/2 104/3/2
f 105/3/2 106/3/2 109/3/2
f 107/3/2 108/3/2 110/3/2
f 105/3/2 109/3/2 111/3/2
f 109/3/2 110/3/2 111/3/2
f 110/3/2 108/3/2 112/3/2
f 111/3/2 110/3/2 112/3/2
f 111/4/2 112/4/2 113/4/2
f 113/4/2 112/4/2 114/4/2
f 113/3/2 114/3/2 115/3/2
f 115/3/2 114/3/2 116/3/2
f 116/3/2 114/3/2 117/3/2
f 117/3/2 114/3/2 118/3/2
f 115/4/2 116/4/2 119/4/2
f 119/4/2 116/4/2 120/4/2
f 117/4/2 118/4/2 121/4/2
f 121/4/2 118/4/2 122/4/2
f 115/4/2 119/4/2 123/4/2
f 120/4/2 116/4/2 126/4/2
f 117/4/2 121/4/2 127/4/2
f 122/4/2 118/4/2 130/4/2
f 113/3/2 115/3/2 131/3/2
f 123/4/2 124/4/2 131/4/2
f 115/4/2 123/4/2 131/4/2
f 131/4/2 124/4/2 132/4/2
f 132/4/2 124/4/2 133/4/2
f 125/4/2 126/4/2 134/4/2
f 126/4/2 116/4/2 135/4/2
f 134/4/2 126/4/2 135/4/2
f 116/3/2 117/3/2 136/3/2
f 135/4/2 116/4/2 136/4/2
f 127/4/2 128/4/2 137/4/2
f 136/3/2 117/3/2 137/3/2
f 117/4/2 127/4/2 137/4/2
f 137/4/2 128/4/2 138/4/2
f 138/4/2 128/4/2 139/4/2
f 129/4/2 130/4/2 140/4/2
f 130/4/2 118/4/2 141/4/2
f 140/4/2 130/4/2 141/4/2
f 118/3/2 114/3/2 142/3/2
f 141/4/2 118/4/2 142/4/2
f 134/4/2 135/4/2 143/4/2
f 132/4/2 133/4/2 143/4/2
f 133/4/2 134/4/2 143/4/2
f 131/3/2 132/3/2 143/3/2
f 135/3/2 136/3/2 144/3/2
f 143/4/2 135/4/2 144/4/2
f 137/3/2 138/3/2 144/3/2
f 136/3/2 137/3/2 144/3/2
f 138/4/2 139/4/2 145/4/2
f 144/3/2 138/3/2 145/3/2
f 140/4/2 141/4/2 145/4/2
f 139/4/2 140/4/2 145/4/2
f 141/3/2 142/3/2 146/3/2
f 145/4/2 141/4/2 146/4/2
f 143/3/2 144/3/2 147/3/2
f 113/3/2 131/3/2 147/3/2
f 145/3/2 146/3/2 147/3/2
f 131/3/2 143/3/2 147/3/2
f 144/3/2 145/3/2 147/3/2
f 147/3/2 146/3/2 148/3/2
f 146/3/2 142/3/2 149/3/2
f 148/3/2 146/3/2 149/3/2
f 142/3/2 114/3/2 149/3/2
f 149/3/2 114/3/2 150/3/2
f 147/4/2 148/4/2 151/4/2
f 148/3/2 149/3/2 152/3/2
f 151/4/2 148/4/2 152/4/2
f 152/3/2 149/3/2 153/3/2
f 153/3/2 149/3/2 154/3/2
f 149/4/2 150/4/2 155/4/2
f 154/3/2 149/3/2 155/3/2
f 155/4/2 150/4/2 156/4/2
f 153/3/2 154/3/2 157/3/2
f 152/4/2 153/4/2 157/4/2
f 154/4/2 155/4/2 158/4/2
f 157/3/2 154/3/2 158/3/2
f 152/4/2 157/4/2 159/4/2
f 157/4/2 158/4/2 159/4/2
f 158/4/2 155/4/2 160/4/2
f 159/4/2 158/4/2 160/4/2
f 163/3/3 162/3/3 161/3/3
f 164/3/3 162/3/3 163/3/3
f 166/3/3 162/3/3 164/3/3
f 167/3/3 162/3/3 166/3/3
f 167/3/3 166/3/3 165/3/3
f 171/3/3 167/3/3 165/3/3
f 172/4/3 168/4/3 167/4/3
f 172/3/3 167/3/3 171/3/3
f 173/3/3 169/3/3 168/3/3
f 173/4/3 168/4/3 172/4/3
f 174/4/3 170/4/3 169/4/3
f 174/3/3 169/3/3 173/3/3
f 175/4/3 170/4/3 174/4/3
f 178/1/3 177/1/3 176/1/3
f 179/1/3 177/1/3 178/1/3
f 182/1/3 181/1/3 180/1/3
f 183/1/3 181/1/3 182/1/3
f 186/4/3 185/4/3 184/4/3
f 187/4/3 185/4/3 186/4/3
f 190/1/3 189/1/3 188/1/3
f 191/1/3 189/1/3 190/1/3
f 194/4/3 193/4/3 192/4/3
f 195/4/3 193/4/3 194/4/3
f 198/4/3 197/4/3 196/4/3
f 199/4/3 197/4/3 198/4/3
f 202/4/3 201/4/3 200/4/3
f 203/4/3 201/4/3 202/4/3
f 206/4/3 205/4/3 204/4/3
f 207/4/3 205/4/3 206/4/3
f 210/3/3 209/3/3 208/3/3
f 211/3/3 209/3/3 210/3/3
f 214/3/3 213/3/3 212/3/3
f 215/3/3 213/3/3 214/3/3
f 216/3/4 217/3/4 218/3/4
f 218/3/4 217/3/4 219/3/4
f 220/3/4 221/3/4 222/3/4
f 222/3/4 221/3/4 223/3/4
f 224/4/4 225/4/4 226/4/4
f 226/4/4 225/4/4 227/4/4
f 228/4/4 229/4/4 230/4/4
f 230/4/4 229/4/4 231/4/4
f 232/4/4 233/4/4 234/4/4
f 234/4/4 233/4/4 235/4/4
f 236/4/4 237/4/4 238/4/4
f 238/4/4 237/4/4 239/4/4
f 240/1/4 241/1/4 242/1/4
f 242/1/4 241/1/4 243/1/4
f 244/4/4 245/4/4 246/4/4
f 246/4/4 245/4/4 247/4/4
f 248/1/4 249/1/4 250/1/4
f 250/1/4 249/1/4 251/1/4
f 252/1/4 253/1/4 254/1/4
f 254/1/4 253/1/4 255/1/4
f 256/3/4 257/3/4 258/3/4
f 258/3/4 257/3/4 259/3/4
f 259/3/4 257/3/4 261/3/4
f 261/3/4 257/3/4 262/3/4
f 260/3/4 261/3/4 262/3/4
f 260/3/4 262/3/4 266/3/4
f 262/4/4 263/4/4 267/4/4
f 266/3/4 262/3/4 267/3/4
f 263/3/4 264/3/4 268/3/4
f 267/4/4 263/4/4 268/4/4
f 264/4/4 265/4/4 269/4/4
f 268/3/4 264/3/4 269/3/4
f 269/4/4 265/4/4 270/4/4
f 275/3/5 272/3/5 271/3/5
f 276/3/5 272/3/5 275/3/5
f 277/3/5 274/3/5 273/3/5
f 278/3/5 274/3/5 277/3/5
f 283/3/5 280/3/5 279/3/5
f 284/3/5 280/3/5 283/3/5
f 285/3/5 282/3/5 281/3/5
f 286/3/5 282/3/5 285/3/5
f 290/3/5 288/3/5 287/3/5
f 291/3/5 288/3/5 290/3/5
f 293/3/5 290/3/5 289/3/5
f 293/3/5 292/3/5 291/3/5
f 293/3/5 291/3/5 290/3/5
f 294/3/5 292/3/5 293/3/5
f 295/3/5 292/3/5 294/3/5
f 296/3/5 292/3/5 295/3/5
f 297/3/5 295/3/5 294/3/5
f 298/3/5 295/3/5 297/3/5
f 301/4/5 300/4/5 299/4/5
f 302/4/5 300/4/5 301/4/5
f 305/4/5 304/4/5 303/4/5
f 306/4/5 304/4/5 305/4/5
f 309/4/5 308/4/5 307/4/5
f 310/4/5 308/4/5 309/4/5
f 313/4/5 312/4/5 311/4/5
f 314/4/5 312/4/5 313/4/5
f 317/4/5 316/4/5 315/4/5
f 318/4/5 316/4/5 317/4/5
f 321/4/5 320/4/5 319/4/5
f 322/4/5 320/4/5 321/4/5
f 323/3/6 324/3/6 325/3/6
f 325/3/6 324/3/6 326/3/6
f 323/3/6 325/3/6 327/3/6
f 327/3/6 325/3/6 328/3/6
f 323/3/6 327/3/6 329/3/6
f 329/3/6 327/3/6 330/3/6
f 323/3/6 329/3/6 331/3/6
f 331/3/6 332/3/6 333/3/6
f 333/3/6 334/3/6 335/3/6
f 333/3/6 335/3/6 337/3/6
f 335/3/6 336/3/6 337/3/6
f 323/3/6 331/3/6 337/3/6
f 331/3/6 333/3/6 337/3/6
f 337/3/6 336/3/6 338/3/6
f 339/1/6 340/1/6 342/1/6
f 342/1/6 340/1/6 343/1/6
f 343/1/6 340/1/6 344/1/6
f 344/1/6 340/1/6 345/1/6
f 341/1/6 342/1/6 346/1/6
f 342/2/6 343/2/6 347/2/6
f 346/1/6 342/1/6 347/1/6
f 341/1/6 346/1/6 348/1/6
f 346/2/6 347/2/6 349/2/6
f 348/1/6 346/1/6 349/1/6
f 349/2/6 347/2/6 350/2/6
f 347/2/6 343/2/6 351/2/6
f 350/2/6 347/2/6 351/2/6
f 343/1/6 344/1/6 352/1/6
f 351/2/6 343/2/6 352/2/6
f 344/2/6 345/2/6 353/2/6
f 352/1/6 344/1/6 353/1/6
f 349/1/6 350/1/6 354/1/6
f 350/2/6 351/2/6 354/2/6
f 354/2/6 351/2/6 355/2/6
f 355/2/6 351/2/6 356/2/6
f 351/1/6 352/1/6 357/1/6
f 356/2/6 351/2/6 357/2/6
f 341/1/6 348/1/6 359/1/6
f 348/2/6 349/2/6 360/2/6
f 359/1/6 348/1/6 360/1/6
f 349/1/6 354/1/6 361/1/6
f 360/2/6 349/2/6 361/2/6
f 354/1/6 355/1/6 361/1/6
f 361/1/6 355/1/6 362/1/6
f 357/1/6 352/1/6 363/1/6
f 356/1/6 357/1/6 363/1/6
f 352/2/6 353/2/6 364/2/6
f 363/1/6 352/1/6 364/1/6
f 362/1/6 355/1/6 365/1/6
f 359/2/6 360/2/6 365/2/6
f 361/2/6 362/2/6 365/2/6
f 360/2/6 361/2/6 365/2/6
f 355/2/6 356/2/6 366/2/6
f 365/1/6 355/1/6 366/1/6
f 366/2/6 356/2/6 367/2/6
f 367/2/6 356/2/6 368/2/6
f 356/1/6 363/1/6 369/1/6
f 368/2/6 356/2/6 369/2/6
f 363/2/6 364/2/6 370/2/6
f 369/1/6 363/1/6 370/1/6
f 367/2/6 368/2/6 371/2/6
f 366/1/6 367/1/6 371/1/6
f 368/1/6 369/1/6 372/1/6
f 371/2/6 368/2/6 372/2/6
f 366/1/6 371/1/6 373/1/6
f 365/2/6 366/2/6 373/2/6
f 371/1/6 372/1/6 373/1/6
f 373/1/6 372/1/6 374/1/6
f 372/1/6 369/1/6 375/1/6
f 374/1/6 372/1/6 375/1/6
f 369/2/6 370/2/6 376/2/6
f 375/1/6 369/1/6 376/1/6
f 373/2/6 374/2/6 377/2/6
f 365/2/6 373/2/6 377/2/6
f 374/1/6 375/1/6 378/1/6
f 377/2/6 374/2/6 378/2/6
f 375/2/6 376/2/6 379/2/6
f 378/1/6 375/1/6 379/1/6
f 376/2/6 370/2/6 380/2/6
f 379/2/6 376/2/6 380/2/6
f 378/1/6 379/1/6 381/1/6
f 377/1/6 378/1/6 381/1/6
f 379/1/6 380/1/6 381/1/6
f 381/1/6 380/1/6 382/1/6
f 359/2/6 365/2/6 383/2/6
f 365/2/6 377/2/6 383/2/6
f 377/1/6 381/1/6 384/1/6
f 383/2/6 377/2/6 384/2/6
f 381/2/6 382/2/6 385/2/6
f 384/1/6 381/1/6 385/1/6
f 382/1/6 380/1/6 386/1/6
f 385/2/6 382/2/6 386/2/6
f 380/2/6 370/2/6 387/2/6
f 386/1/6 380/1/6 387/1/6
f 370/2/6 364/2/6 388/2/6
f 387/2/6 370/2/6 388/2/6
f 358/1/6 359/1/6 389/1/6
f 359/2/6 383/2/6 390/2/6
f 389/1/6 359/1/6 390/1/6
f 390/2/6 383/2/6 391/2/6
f 391/2/6 383/2/6 392/2/6
f 383/1/6 384/1/6 393/1/6
f 392/2/6 383/2/6 393/2/6
f 388/2/6 364/2/6 394/2/6
f 387/1/6 388/1/6 394/1/6
f 364/2/6 353/2/6 395/2/6
f 394/2/6 364/2/6 395/2/6
f 393/1/6 384/1/6 396/1/6
f 392/1/6 393/1/6 396/1/6
f 386/2/6 387/2/6 397/2/6
f 396/1/6 384/1/6 397/1/6
f 384/2/6 385/2/6 397/2/6
f 385/2/6 386/2/6 397/2/6
f 387/1/6 394/1/6 398/1/6
f 397/2/6 387/2/6 398/2/6
f 394/1/6 395/1/6 398/1/6
f 398/1/6 395/1/6 399/1/6
f 390/1/6 391/1/6 400/1/6
f 391/2/6 392/2/6 400/2/6
f 392/1/6 396/1/6 401/1/6
f 400/2/6 392/2/6 401/2/6
f 396/2/6 397/2/6 402/2/6
f 401/1/6 396/1/6 402/1/6
f 398/2/6 399/2/6 402/2/6
f 397/2/6 398/2/6 402/2/6
f 399/1/6 395/1/6 403/1/6
f 402/2/6 399/2/6 403/2/6
f 395/2/6 353/2/6 404/2/6
f 403/1/6 395/1/6 404/1/6
f 353/2/6 345/2/6 405/2/6
f 404/2/6 353/2/6 405/2/6
f 403/2/6 404/2/6 406/2/6
f 401/2/6 402/2/6 406/2/6
f 400/1/6 401/1/6 406/1/6
f 402/2/6 403/2/6 406/2/6
f 406/2/6 404/2/6 407/2/6
f 390/1/6 400/1/6 408/1/6
f 400/1/6 406/1/6 408/1/6
f 406/1/6 407/1/6 408/1/6
f 407/2/6 404/2/6 409/2/6
f 408/1/6 407/1/6 409/1/6
f 404/1/6 405/1/6 410/1/6
f 409/2/6 404/2/6 410/2/6
f 405/2/6 345/2/6 411/2/6
f 410/1/6 405/1/6 411/1/6
f 411/2/6 345/2/6 412/2/6
f 409/1/6 410/1/6 413/1/6
f 411/1/6 412/1/6 413/1/6
f 410/1/6 411/1/6 413/1/6
f 413/1/6 412/1/6 414/1/6
f 415/4/6 416/4/6 417/4/6
f 417/4/6 416/4/6 418/4/6
f 419/4/6 420/4/6 421/4/6
f 421/4/6 420/4/6 422/4/6
f 423/4/6 424/4/6 425/4/6
f 425/4/6 424/4/6 426/4/6
f 427/4/6 428/4/6 429/4/6
f 429/4/6 428/4/6 430/4/6
f 431/4/6 432/4/6 433/4/6
f 433/4/6 432/4/6 434/4/6
