# MagicaVoxel @ Ephtracy

# group
o 

# material
mtllib Light boat.mtl
usemtl palette

# normals
vn -1 0 0
vn 1 0 0
vn 0 0 1
vn 0 0 -1
vn 0 -1 0
vn 0 1 0

# texcoords
vt 0.0175781 0.5
vt 0.0449219 0.5
vt 0.978516 0.5
vt 0.982422 0.5
vt 0.986328 0.5
vt 0.990234 0.5
vt 0.994141 0.5

# verts
v -0.3 0.1 -0.7
v -0.3 0.1 -0.8
v -0.3 0.4 -0.7
v -0.3 0.4 -0.8
v -0.3 1.6 -5.96046e-08
v -0.3 1.6 -0.1
v -0.3 1.6 -0.2
v -0.3 1.7 -5.96046e-08
v -0.3 1.7 -0.1
v -0.3 1.7 -0.2
v -0.2 0 -0.7
v -0.2 0 -0.8
v -0.2 0.1 -0.7
v -0.2 0.1 -0.8
v -0.2 0.4 -0.7
v -0.2 0.4 -0.8
v -0.2 0.5 -0.7
v -0.2 0.5 -0.8
v -0.2 0.9 -5.96046e-08
v -0.2 0.9 -0.2
v -0.2 1 0.0999999
v -0.2 1 -5.96046e-08
v -0.2 1 -0.2
v -0.2 1 -0.3
v -0.2 1.1 0.0999999
v -0.2 1.1 -5.96046e-08
v -0.2 1.1 -0.1
v -0.2 1.1 -0.2
v -0.2 1.1 -0.3
v -0.2 1.2 -0.1
v -0.2 1.2 -0.2
v -0.2 1.3 -5.96046e-08
v -0.2 1.3 -0.1
v -0.2 1.4 -0.1
v -0.2 1.4 -0.2
v -0.2 1.6 0.2
v -0.2 1.6 0.0999999
v -0.2 1.6 -5.96046e-08
v -0.2 1.6 -0.1
v -0.2 1.6 -0.2
v -0.2 1.7 0.2
v -0.2 1.7 -5.96046e-08
v -0.2 1.7 -0.1
v -0.2 1.7 -0.2
v -0.2 1.7 -0.3
v -0.2 1.8 -5.96046e-08
v -0.2 1.8 -0.1
v -0.2 1.8 -0.2
v -0.1 0.1 -0.2
v -0.1 0.1 -0.3
v -0.1 0.1 -0.5
v -0.1 0.1 -0.7
v -0.1 0.2 -0.1
v -0.1 0.2 -0.2
v -0.1 0.2 -0.4
v -0.1 0.2 -0.5
v -0.1 0.3 -0.3
v -0.1 0.3 -0.4
v -0.1 0.4 -5.96046e-08
v -0.1 0.4 -0.1
v -0.1 0.4 -0.2
v -0.1 0.4 -0.3
v -0.1 0.4 -0.7
v -0.1 0.5 -5.96046e-08
v -0.1 0.5 -0.1
v -0.1 0.5 -0.2
v -0.1 0.5 -0.3
v -0.1 0.7 -0.1
v -0.1 0.7 -0.2
v -0.1 0.8 -5.96046e-08
v -0.1 0.8 -0.2
v -0.1 0.9 0.0999999
v -0.1 0.9 -5.96046e-08
v -0.1 0.9 -0.2
v -0.1 0.9 -0.3
v -0.1 1 0.0999999
v -0.1 1 -5.96046e-08
v -0.1 1 -0.2
v -0.1 1 -0.3
v -0.1 1.6 -0.3
v -0.1 1.6 -0.4
v -0.1 1.7 0.0999999
v -0.1 1.7 -5.96046e-08
v -0.1 1.7 -0.2
v -0.1 1.7 -0.3
v -0.1 1.7 -0.4
v -0.1 1.8 0.0999999
v -0.1 1.8 -5.96046e-08
v -0.1 1.8 -0.2
v -0.1 1.8 -0.3
v 0.1 0.1 -0.2
v 0.1 0.1 -0.7
v 0.1 0.2 -0.1
v 0.1 0.2 -0.2
v 0.1 0.2 -0.5
v 0.1 0.3 -0.1
v 0.1 0.3 -0.2
v 0.1 0.3 -0.4
v 0.1 0.3 -0.5
v 0.1 0.3 -0.7
v 0.1 0.4 -5.96046e-08
v 0.1 0.4 -0.1
v 0.1 0.4 -0.2
v 0.1 0.4 -0.3
v 0.1 0.4 -0.4
v 0.1 0.4 -0.7
v 0.1 0.5 -0.2
v 0.1 0.5 -0.3
v 0.1 0.8 -5.96046e-08
v 0.1 0.8 -0.2
v 0.1 0.9 0.0999999
v 0.1 0.9 -5.96046e-08
v 0.1 0.9 -0.2
v 0.1 0.9 -0.3
v 0.1 1 0.0999999
v 0.1 1 -5.96046e-08
v 0.1 1 -0.2
v 0.1 1 -0.3
v 0.1 1.6 0.2
v 0.1 1.6 0.0999999
v 0.1 1.6 -0.3
v 0.1 1.6 -0.4
v 0.1 1.7 0.2
v 0.1 1.7 0.0999999
v 0.1 1.7 -5.96046e-08
v 0.1 1.7 -0.2
v 0.1 1.7 -0.3
v 0.1 1.7 -0.4
v 0.1 1.8 0.0999999
v 0.1 1.8 -5.96046e-08
v 0.1 1.8 -0.2
v 0.1 1.8 -0.3
v 0.2 0 -0.7
v 0.2 0 -0.8
v 0.2 0.1 -0.7
v 0.2 0.1 -0.8
v 0.2 0.4 -0.7
v 0.2 0.4 -0.8
v 0.2 0.5 -0.7
v 0.2 0.5 -0.8
v 0.2 0.9 -5.96046e-08
v 0.2 0.9 -0.2
v 0.2 1 0.0999999
v 0.2 1 -5.96046e-08
v 0.2 1 -0.2
v 0.2 1 -0.3
v 0.2 1.2 -5.96046e-08
v 0.2 1.2 -0.1
v 0.2 1.3 -0.1
v 0.2 1.3 -0.2
v 0.2 1.4 -5.96046e-08
v 0.2 1.4 -0.1
v 0.2 1.5 -0.1
v 0.2 1.5 -0.2
v 0.2 1.6 -5.96046e-08
v 0.2 1.6 -0.2
v 0.2 1.7 0.0999999
v 0.2 1.7 -5.96046e-08
v 0.2 1.7 -0.2
v 0.2 1.7 -0.3
v 0.2 1.8 -5.96046e-08
v 0.2 1.8 -0.2
v 0.3 0.1 -0.7
v 0.3 0.1 -0.8
v 0.3 0.4 -0.7
v 0.3 0.4 -0.8
v 0.3 1.6 -5.96046e-08
v 0.3 1.6 -0.2
v 0.3 1.7 -5.96046e-08
v 0.3 1.7 -0.2
v -0.2 1.6 0.2
v -0.2 1.7 0.2
v -0.1 1.6 0.2
v -0.1 1.7 0.2
v 0.1 1.6 0.2
v 0.1 1.7 0.2
v -0.2 1 0.0999999
v -0.2 1.1 0.0999999
v -0.2 1.6 0.0999999
v -0.1 0.9 0.0999999
v -0.1 1 0.0999999
v -0.1 1.1 0.0999999
v -0.1 1.3 0.0999999
v -0.1 1.4 0.0999999
v -0.1 1.6 0.0999999
v -0.1 1.7 0.0999999
v -0.1 1.8 0.0999999
v 2.98023e-08 0.9 0.0999999
v 2.98023e-08 1 0.0999999
v 2.98023e-08 1.2 0.0999999
v 2.98023e-08 1.3 0.0999999
v 2.98023e-08 1.7 0.0999999
v 2.98023e-08 1.8 0.0999999
v 0.1 0.9 0.0999999
v 0.1 1 0.0999999
v 0.1 1.2 0.0999999
v 0.1 1.4 0.0999999
v 0.1 1.6 0.0999999
v 0.1 1.7 0.0999999
v 0.1 1.8 0.0999999
v 0.2 1 0.0999999
v 0.2 1.7 0.0999999
v -0.3 1.6 -5.96046e-08
v -0.3 1.7 -5.96046e-08
v -0.2 0.9 -5.96046e-08
v -0.2 1 -5.96046e-08
v -0.2 1.6 -5.96046e-08
v -0.2 1.7 -5.96046e-08
v -0.2 1.8 -5.96046e-08
v -0.1 0.4 -5.96046e-08
v -0.1 0.5 -5.96046e-08
v -0.1 0.8 -5.96046e-08
v -0.1 0.9 -5.96046e-08
v -0.1 1 -5.96046e-08
v -0.1 1.7 -5.96046e-08
v -0.1 1.8 -5.96046e-08
v 2.98023e-08 0.4 -5.96046e-08
v 2.98023e-08 0.5 -5.96046e-08
v 2.98023e-08 0.9 -5.96046e-08
v 0.1 0.4 -5.96046e-08
v 0.1 0.8 -5.96046e-08
v 0.1 0.9 -5.96046e-08
v 0.1 1 -5.96046e-08
v 0.1 1.7 -5.96046e-08
v 0.1 1.8 -5.96046e-08
v 0.2 0.9 -5.96046e-08
v 0.2 1 -5.96046e-08
v 0.2 1.6 -5.96046e-08
v 0.2 1.7 -5.96046e-08
v 0.2 1.8 -5.96046e-08
v 0.3 1.6 -5.96046e-08
v 0.3 1.7 -5.96046e-08
v -0.1 0.2 -0.1
v -0.1 0.4 -0.1
v 2.98023e-08 0.3 -0.1
v 2.98023e-08 0.4 -0.1
v 0.1 0.2 -0.1
v 0.1 0.3 -0.1
v 0.1 0.4 -0.1
v -0.1 0.1 -0.2
v -0.1 0.2 -0.2
v 0.1 0.1 -0.2
v 0.1 0.2 -0.2
v -0.3 0.1 -0.7
v -0.3 0.4 -0.7
v -0.2 0 -0.7
v -0.2 0.1 -0.7
v -0.2 0.4 -0.7
v -0.2 0.5 -0.7
v -0.1 0.1 -0.7
v -0.1 0.4 -0.7
v 2.98023e-08 0.4 -0.7
v 0.1 0.1 -0.7
v 0.1 0.3 -0.7
v 0.1 0.4 -0.7
v 0.2 0 -0.7
v 0.2 0.1 -0.7
v 0.2 0.4 -0.7
v 0.2 0.5 -0.7
v 0.3 0.1 -0.7
v 0.3 0.4 -0.7
v -0.3 1.6 -0.2
v -0.3 1.7 -0.2
v -0.2 0.9 -0.2
v -0.2 1 -0.2
v -0.2 1.6 -0.2
v -0.2 1.7 -0.2
v -0.2 1.8 -0.2
v -0.1 0.5 -0.2
v -0.1 0.7 -0.2
v -0.1 0.8 -0.2
v -0.1 0.9 -0.2
v -0.1 1 -0.2
v -0.1 1.7 -0.2
v -0.1 1.8 -0.2
v 2.98023e-08 0.5 -0.2
v 2.98023e-08 0.7 -0.2
v 2.98023e-08 0.9 -0.2
v 0.1 0.5 -0.2
v 0.1 0.8 -0.2
v 0.1 0.9 -0.2
v 0.1 1 -0.2
v 0.1 1.7 -0.2
v 0.1 1.8 -0.2
v 0.2 0.9 -0.2
v 0.2 1 -0.2
v 0.2 1.6 -0.2
v 0.2 1.7 -0.2
v 0.2 1.8 -0.2
v 0.3 1.6 -0.2
v 0.3 1.7 -0.2
v -0.2 1 -0.3
v -0.2 1.1 -0.3
v -0.2 1.7 -0.3
v -0.1 0.4 -0.3
v -0.1 0.5 -0.3
v -0.1 0.9 -0.3
v -0.1 1 -0.3
v -0.1 1.1 -0.3
v -0.1 1.2 -0.3
v -0.1 1.4 -0.3
v -0.1 1.6 -0.3
v -0.1 1.7 -0.3
v -0.1 1.8 -0.3
v 2.98023e-08 0.9 -0.3
v 2.98023e-08 1 -0.3
v 2.98023e-08 1.2 -0.3
v 2.98023e-08 1.4 -0.3
v 0.1 0.4 -0.3
v 0.1 0.5 -0.3
v 0.1 0.9 -0.3
v 0.1 1 -0.3
v 0.1 1.6 -0.3
v 0.1 1.7 -0.3
v 0.1 1.8 -0.3
v 0.2 1 -0.3
v 0.2 1.7 -0.3
v -0.1 1.6 -0.4
v -0.1 1.7 -0.4
v 0.1 1.6 -0.4
v 0.1 1.7 -0.4
v -0.3 0.1 -0.8
v -0.3 0.4 -0.8
v -0.2 0 -0.8
v -0.2 0.1 -0.8
v -0.2 0.4 -0.8
v -0.2 0.5 -0.8
v 0.2 0 -0.8
v 0.2 0.1 -0.8
v 0.2 0.4 -0.8
v 0.2 0.5 -0.8
v 0.3 0.1 -0.8
v 0.3 0.4 -0.8
v -0.2 0 -0.7
v 0.2 0 -0.7
v -0.2 0 -0.8
v 0.2 0 -0.8
v -0.1 0.1 -0.2
v 0.1 0.1 -0.2
v -0.1 0.1 -0.3
v 2.98023e-08 0.1 -0.3
v -0.1 0.1 -0.5
v 2.98023e-08 0.1 -0.5
v -0.3 0.1 -0.7
v -0.2 0.1 -0.7
v -0.1 0.1 -0.7
v 0.1 0.1 -0.7
v 0.2 0.1 -0.7
v 0.3 0.1 -0.7
v -0.3 0.1 -0.8
v -0.2 0.1 -0.8
v 0.2 0.1 -0.8
v 0.3 0.1 -0.8
v -0.1 0.2 -0.1
v 0.1 0.2 -0.1
v -0.1 0.2 -0.2
v 0.1 0.2 -0.2
v -0.1 0.4 -5.96046e-08
v 2.98023e-08 0.4 -5.96046e-08
v 0.1 0.4 -5.96046e-08
v -0.1 0.4 -0.1
v 2.98023e-08 0.4 -0.1
v 0.1 0.4 -0.1
v -0.1 0.9 0.0999999
v 2.98023e-08 0.9 0.0999999
v 0.1 0.9 0.0999999
v -0.2 0.9 -5.96046e-08
v -0.1 0.9 -5.96046e-08
v 2.98023e-08 0.9 -5.96046e-08
v 0.1 0.9 -5.96046e-08
v 0.2 0.9 -5.96046e-08
v -0.2 0.9 -0.2
v -0.1 0.9 -0.2
v 2.98023e-08 0.9 -0.2
v 0.1 0.9 -0.2
v 0.2 0.9 -0.2
v -0.1 0.9 -0.3
v 2.98023e-08 0.9 -0.3
v 0.1 0.9 -0.3
v -0.2 1 0.0999999
v -0.1 1 0.0999999
v 0.1 1 0.0999999
v 0.2 1 0.0999999
v -0.2 1 -5.96046e-08
v -0.1 1 -5.96046e-08
v 0.1 1 -5.96046e-08
v 0.2 1 -5.96046e-08
v -0.2 1 -0.2
v -0.1 1 -0.2
v 0.1 1 -0.2
v 0.2 1 -0.2
v -0.2 1 -0.3
v -0.1 1 -0.3
v 0.1 1 -0.3
v 0.2 1 -0.3
v -0.2 1.6 0.2
v -0.1 1.6 0.2
v 0.1 1.6 0.2
v -0.2 1.6 0.0999999
v -0.1 1.6 0.0999999
v 0.1 1.6 0.0999999
v -0.3 1.6 -5.96046e-08
v -0.2 1.6 -5.96046e-08
v 0.2 1.6 -5.96046e-08
v 0.3 1.6 -5.96046e-08
v -0.3 1.6 -0.1
v -0.2 1.6 -0.1
v -0.3 1.6 -0.2
v -0.2 1.6 -0.2
v 0.2 1.6 -0.2
v 0.3 1.6 -0.2
v -0.1 1.6 -0.3
v 0.1 1.6 -0.3
v -0.1 1.6 -0.4
v 0.1 1.6 -0.4
v -0.1 0.4 -0.3
v 0.1 0.4 -0.3
v 2.98023e-08 0.4 -0.4
v 0.1 0.4 -0.4
v -0.3 0.4 -0.7
v -0.2 0.4 -0.7
v -0.1 0.4 -0.7
v 2.98023e-08 0.4 -0.7
v 0.1 0.4 -0.7
v 0.2 0.4 -0.7
v 0.3 0.4 -0.7
v -0.3 0.4 -0.8
v -0.2 0.4 -0.8
v 0.2 0.4 -0.8
v 0.3 0.4 -0.8
v -0.1 0.5 -0.2
v 2.98023e-08 0.5 -0.2
v 0.1 0.5 -0.2
v -0.1 0.5 -0.3
v 0.1 0.5 -0.3
v -0.2 0.5 -0.7
v 0.2 0.5 -0.7
v -0.2 0.5 -0.8
v 0.2 0.5 -0.8
v -0.2 1.7 0.2
v -0.1 1.7 0.2
v 0.1 1.7 0.2
v -0.1 1.7 0.0999999
v 2.98023e-08 1.7 0.0999999
v 0.1 1.7 0.0999999
v 0.2 1.7 0.0999999
v -0.3 1.7 -5.96046e-08
v -0.2 1.7 -5.96046e-08
v -0.1 1.7 -5.96046e-08
v 0.1 1.7 -5.96046e-08
v 0.2 1.7 -5.96046e-08
v 0.3 1.7 -5.96046e-08
v -0.3 1.7 -0.1
v -0.2 1.7 -0.1
v -0.3 1.7 -0.2
v -0.2 1.7 -0.2
v -0.1 1.7 -0.2
v 0.1 1.7 -0.2
v 0.2 1.7 -0.2
v 0.3 1.7 -0.2
v -0.2 1.7 -0.3
v -0.1 1.7 -0.3
v 0.1 1.7 -0.3
v 0.2 1.7 -0.3
v -0.1 1.7 -0.4
v 0.1 1.7 -0.4
v -0.1 1.8 0.0999999
v 2.98023e-08 1.8 0.0999999
v 0.1 1.8 0.0999999
v -0.2 1.8 -5.96046e-08
v -0.1 1.8 -5.96046e-08
v 2.98023e-08 1.8 -5.96046e-08
v 0.1 1.8 -5.96046e-08
v 0.2 1.8 -5.96046e-08
v -0.2 1.8 -0.1
v -0.1 1.8 -0.1
v -0.2 1.8 -0.2
v -0.1 1.8 -0.2
v 0.1 1.8 -0.2
v 0.2 1.8 -0.2
v -0.1 1.8 -0.3
v 0.1 1.8 -0.3

# faces
f 3/5/1 2/5/1 1/5/1
f 4/5/1 2/5/1 3/5/1
f 8/7/1 6/7/1 5/7/1
f 9/6/1 7/6/1 6/6/1
f 9/7/1 6/7/1 8/7/1
f 10/6/1 7/6/1 9/6/1
f 13/5/1 12/5/1 11/5/1
f 14/5/1 12/5/1 13/5/1
f 17/5/1 16/5/1 15/5/1
f 18/5/1 16/5/1 17/5/1
f 22/7/1 20/7/1 19/7/1
f 23/7/1 20/7/1 22/7/1
f 25/6/1 22/6/1 21/6/1
f 26/1/1 23/1/1 22/1/1
f 26/6/1 22/6/1 25/6/1
f 27/1/1 23/1/1 26/1/1
f 28/6/1 24/6/1 23/6/1
f 28/1/1 23/1/1 27/1/1
f 29/6/1 24/6/1 28/6/1
f 30/2/1 27/2/1 26/2/1
f 30/1/1 28/1/1 27/1/1
f 31/7/1 29/7/1 28/7/1
f 31/1/1 28/1/1 30/1/1
f 32/7/1 26/7/1 25/7/1
f 32/2/1 30/2/1 26/2/1
f 32/2/1 31/2/1 30/2/1
f 33/2/1 31/2/1 32/2/1
f 34/1/1 33/1/1 32/1/1
f 34/2/1 31/2/1 33/2/1
f 35/7/1 29/7/1 31/7/1
f 35/2/1 31/2/1 34/2/1
f 37/7/1 32/7/1 25/7/1
f 38/1/1 34/1/1 32/1/1
f 38/1/1 35/1/1 34/1/1
f 38/7/1 32/7/1 37/7/1
f 39/1/1 35/1/1 38/1/1
f 40/7/1 29/7/1 35/7/1
f 40/1/1 35/1/1 39/1/1
f 41/7/1 37/7/1 36/7/1
f 41/7/1 38/7/1 37/7/1
f 42/7/1 38/7/1 41/7/1
f 44/7/1 29/7/1 40/7/1
f 45/7/1 29/7/1 44/7/1
f 46/7/1 43/7/1 42/7/1
f 47/6/1 44/6/1 43/6/1
f 47/7/1 43/7/1 46/7/1
f 48/6/1 44/6/1 47/6/1
f 54/5/1 50/5/1 49/5/1
f 55/4/1 51/4/1 50/4/1
f 56/5/1 52/5/1 51/5/1
f 56/4/1 51/4/1 55/4/1
f 57/4/1 55/4/1 50/4/1
f 57/5/1 54/5/1 53/5/1
f 57/5/1 50/5/1 54/5/1
f 58/5/1 56/5/1 55/5/1
f 58/4/1 55/4/1 57/4/1
f 60/5/1 57/5/1 53/5/1
f 60/5/1 58/5/1 57/5/1
f 61/5/1 58/5/1 60/5/1
f 62/5/1 58/5/1 61/5/1
f 63/5/1 52/5/1 56/5/1
f 63/5/1 58/5/1 62/5/1
f 63/5/1 56/5/1 58/5/1
f 64/4/1 61/4/1 60/4/1
f 64/4/1 60/4/1 59/4/1
f 65/4/1 61/4/1 64/4/1
f 66/5/1 62/5/1 61/5/1
f 66/4/1 61/4/1 65/4/1
f 67/5/1 62/5/1 66/5/1
f 68/5/1 65/5/1 64/5/1
f 68/4/1 66/4/1 65/4/1
f 69/4/1 66/4/1 68/4/1
f 70/5/1 68/5/1 64/5/1
f 70/5/1 69/5/1 68/5/1
f 71/5/1 69/5/1 70/5/1
f 73/3/1 71/3/1 70/3/1
f 74/3/1 71/3/1 73/3/1
f 76/6/1 73/6/1 72/6/1
f 77/6/1 73/6/1 76/6/1
f 78/6/1 75/6/1 74/6/1
f 79/6/1 75/6/1 78/6/1
f 85/7/1 81/7/1 80/7/1
f 86/7/1 81/7/1 85/7/1
f 87/6/1 83/6/1 82/6/1
f 88/6/1 83/6/1 87/6/1
f 89/7/1 85/7/1 84/7/1
f 90/7/1 85/7/1 89/7/1
f 91/5/2 92/5/2 94/5/2
f 94/5/2 92/5/2 95/5/2
f 93/5/2 94/5/2 96/5/2
f 94/4/2 95/4/2 97/4/2
f 96/5/2 94/5/2 97/5/2
f 97/4/2 95/4/2 98/4/2
f 95/5/2 92/5/2 99/5/2
f 98/4/2 95/4/2 99/4/2
f 99/5/2 92/5/2 100/5/2
f 96/4/2 97/4/2 102/4/2
f 97/5/2 98/5/2 103/5/2
f 102/4/2 97/4/2 103/4/2
f 103/5/2 98/5/2 104/5/2
f 98/4/2 99/4/2 105/4/2
f 104/5/2 98/5/2 105/5/2
f 99/4/2 100/4/2 105/4/2
f 105/4/2 100/4/2 106/4/2
f 101/5/2 102/5/2 107/5/2
f 103/5/2 104/5/2 107/5/2
f 102/5/2 103/5/2 107/5/2
f 107/5/2 104/5/2 108/5/2
f 101/5/2 107/5/2 109/5/2
f 109/5/2 107/5/2 110/5/2
f 109/3/2 110/3/2 112/3/2
f 112/3/2 110/3/2 113/3/2
f 111/7/2 112/7/2 115/7/2
f 115/7/2 112/7/2 116/7/2
f 113/7/2 114/7/2 117/7/2
f 117/7/2 114/7/2 118/7/2
f 119/6/2 120/6/2 123/6/2
f 123/6/2 120/6/2 124/6/2
f 121/7/2 122/7/2 127/7/2
f 127/7/2 122/7/2 128/7/2
f 124/7/2 125/7/2 129/7/2
f 129/7/2 125/7/2 130/7/2
f 126/7/2 127/7/2 131/7/2
f 131/7/2 127/7/2 132/7/2
f 133/5/2 134/5/2 135/5/2
f 135/5/2 134/5/2 136/5/2
f 137/5/2 138/5/2 139/5/2
f 139/5/2 138/5/2 140/5/2
f 141/7/2 142/7/2 144/7/2
f 144/7/2 142/7/2 145/7/2
f 143/7/2 144/7/2 147/7/2
f 144/1/2 145/1/2 147/1/2
f 147/1/2 145/1/2 148/1/2
f 147/2/2 148/2/2 149/2/2
f 148/1/2 145/1/2 149/1/2
f 145/7/2 146/7/2 150/7/2
f 149/1/2 145/1/2 150/1/2
f 147/2/2 149/2/2 151/2/2
f 143/7/2 147/7/2 151/7/2
f 149/2/2 150/2/2 151/2/2
f 151/2/2 150/2/2 152/2/2
f 151/1/2 152/1/2 153/1/2
f 152/2/2 150/2/2 153/2/2
f 150/7/2 146/7/2 154/7/2
f 153/2/2 150/2/2 154/2/2
f 151/1/2 153/1/2 155/1/2
f 143/7/2 151/7/2 155/7/2
f 153/1/2 154/1/2 155/1/2
f 154/7/2 146/7/2 156/7/2
f 155/1/2 154/1/2 156/1/2
f 143/7/2 155/7/2 157/7/2
f 157/7/2 155/7/2 158/7/2
f 156/7/2 146/7/2 159/7/2
f 159/7/2 146/7/2 160/7/2
f 158/6/2 159/6/2 161/6/2
f 161/6/2 159/6/2 162/6/2
f 163/5/2 164/5/2 165/5/2
f 165/5/2 164/5/2 166/5/2
f 167/7/2 168/7/2 169/7/2
f 169/7/2 168/7/2 170/7/2
f 173/7/3 172/7/3 171/7/3
f 174/7/3 172/7/3 173/7/3
f 175/6/3 174/6/3 173/6/3
f 176/6/3 174/6/3 175/6/3
f 181/6/3 178/6/3 177/6/3
f 182/7/3 179/7/3 178/7/3
f 182/6/3 178/6/3 181/6/3
f 183/7/3 179/7/3 182/7/3
f 184/7/3 179/7/3 183/7/3
f 185/7/3 179/7/3 184/7/3
f 188/6/3 181/6/3 180/6/3
f 189/1/3 182/1/3 181/1/3
f 189/6/3 181/6/3 188/6/3
f 189/1/3 183/1/3 182/1/3
f 190/1/3 183/1/3 189/1/3
f 191/2/3 184/2/3 183/2/3
f 191/1/3 183/1/3 190/1/3
f 192/6/3 187/6/3 186/6/3
f 193/6/3 187/6/3 192/6/3
f 194/7/3 189/7/3 188/7/3
f 195/1/3 190/1/3 189/1/3
f 195/7/3 189/7/3 194/7/3
f 196/2/3 191/2/3 190/2/3
f 196/1/3 190/1/3 195/1/3
f 197/2/3 184/2/3 191/2/3
f 197/2/3 191/2/3 196/2/3
f 197/1/3 185/1/3 184/1/3
f 198/1/3 185/1/3 197/1/3
f 199/7/3 193/7/3 192/7/3
f 200/7/3 193/7/3 199/7/3
f 201/7/3 196/7/3 195/7/3
f 201/7/3 198/7/3 197/7/3
f 201/7/3 199/7/3 198/7/3
f 201/7/3 197/7/3 196/7/3
f 202/7/3 199/7/3 201/7/3
f 207/7/3 204/7/3 203/7/3
f 208/7/3 204/7/3 207/7/3
f 213/7/3 206/7/3 205/7/3
f 214/7/3 206/7/3 213/7/3
f 215/7/3 209/7/3 208/7/3
f 216/7/3 209/7/3 215/7/3
f 217/4/3 211/4/3 210/4/3
f 218/5/3 212/5/3 211/5/3
f 218/4/3 211/4/3 217/4/3
f 219/3/3 213/3/3 212/3/3
f 220/5/3 218/5/3 217/5/3
f 221/5/3 212/5/3 218/5/3
f 221/5/3 218/5/3 220/5/3
f 221/3/3 219/3/3 212/3/3
f 222/3/3 219/3/3 221/3/3
f 226/7/3 223/7/3 222/7/3
f 227/7/3 223/7/3 226/7/3
f 229/6/3 225/6/3 224/6/3
f 230/6/3 225/6/3 229/6/3
f 231/7/3 229/7/3 228/7/3
f 232/7/3 229/7/3 231/7/3
f 235/5/3 234/5/3 233/5/3
f 236/5/3 234/5/3 235/5/3
f 237/5/3 235/5/3 233/5/3
f 238/4/3 236/4/3 235/4/3
f 238/5/3 235/5/3 237/5/3
f 239/4/3 236/4/3 238/4/3
f 242/5/3 241/5/3 240/5/3
f 243/5/3 241/5/3 242/5/3
f 247/5/3 245/5/3 244/5/3
f 248/5/3 245/5/3 247/5/3
f 250/5/3 247/5/3 246/5/3
f 250/5/3 249/5/3 248/5/3
f 250/5/3 248/5/3 247/5/3
f 251/5/3 249/5/3 250/5/3
f 252/5/3 249/5/3 251/5/3
f 253/5/3 250/5/3 246/5/3
f 255/5/3 249/5/3 252/5/3
f 256/5/3 254/5/3 253/5/3
f 256/5/3 255/5/3 254/5/3
f 256/5/3 253/5/3 246/5/3
f 257/5/3 255/5/3 256/5/3
f 258/5/3 249/5/3 255/5/3
f 258/5/3 255/5/3 257/5/3
f 259/5/3 249/5/3 258/5/3
f 260/5/3 258/5/3 257/5/3
f 261/5/3 258/5/3 260/5/3
f 262/6/4 263/6/4 266/6/4
f 266/6/4 263/6/4 267/6/4
f 264/7/4 265/7/4 272/7/4
f 272/7/4 265/7/4 273/7/4
f 267/6/4 268/6/4 274/6/4
f 274/6/4 268/6/4 275/6/4
f 269/4/4 270/4/4 276/4/4
f 270/5/4 271/5/4 277/5/4
f 276/4/4 270/4/4 277/4/4
f 271/3/4 272/3/4 278/3/4
f 276/5/4 277/5/4 279/5/4
f 277/5/4 271/5/4 280/5/4
f 279/5/4 277/5/4 280/5/4
f 271/3/4 278/3/4 280/3/4
f 280/3/4 278/3/4 281/3/4
f 281/7/4 282/7/4 285/7/4
f 285/7/4 282/7/4 286/7/4
f 283/6/4 284/6/4 288/6/4
f 288/6/4 284/6/4 289/6/4
f 287/7/4 288/7/4 290/7/4
f 290/7/4 288/7/4 291/7/4
f 292/6/4 293/6/4 298/6/4
f 293/7/4 294/7/4 299/7/4
f 298/6/4 293/6/4 299/6/4
f 299/7/4 294/7/4 300/7/4
f 300/7/4 294/7/4 301/7/4
f 301/7/4 294/7/4 302/7/4
f 302/7/4 294/7/4 303/7/4
f 297/6/4 298/6/4 305/6/4
f 298/1/4 299/1/4 306/1/4
f 305/6/4 298/6/4 306/6/4
f 299/1/4 300/1/4 306/1/4
f 300/2/4 301/2/4 307/2/4
f 306/1/4 300/1/4 307/1/4
f 301/1/4 302/1/4 308/1/4
f 307/2/4 301/2/4 308/2/4
f 295/5/4 296/5/4 309/5/4
f 309/5/4 296/5/4 310/5/4
f 305/7/4 306/7/4 311/7/4
f 306/1/4 307/1/4 312/1/4
f 311/7/4 306/7/4 312/7/4
f 307/1/4 308/1/4 312/1/4
f 308/1/4 302/1/4 313/1/4
f 312/1/4 308/1/4 313/1/4
f 303/7/4 304/7/4 314/7/4
f 314/7/4 304/7/4 315/7/4
f 312/7/4 313/7/4 316/7/4
f 313/7/4 314/7/4 316/7/4
f 316/7/4 314/7/4 317/7/4
f 318/7/4 319/7/4 320/7/4
f 320/7/4 319/7/4 321/7/4
f 322/5/4 323/5/4 325/5/4
f 325/5/4 323/5/4 326/5/4
f 324/5/4 325/5/4 328/5/4
f 326/5/4 327/5/4 328/5/4
f 325/5/4 326/5/4 328/5/4
f 328/5/4 327/5/4 329/5/4
f 329/5/4 327/5/4 330/5/4
f 330/5/4 327/5/4 331/5/4
f 329/5/4 330/5/4 332/5/4
f 332/5/4 330/5/4 333/5/4
f 336/5/5 335/5/5 334/5/5
f 337/5/5 335/5/5 336/5/5
f 340/5/5 339/5/5 338/5/5
f 341/5/5 339/5/5 340/5/5
f 342/4/5 341/4/5 340/4/5
f 343/5/5 339/5/5 341/5/5
f 343/4/5 341/4/5 342/4/5
f 346/5/5 343/5/5 342/5/5
f 347/5/5 339/5/5 343/5/5
f 347/5/5 343/5/5 346/5/5
f 350/5/5 345/5/5 344/5/5
f 351/5/5 345/5/5 350/5/5
f 352/5/5 349/5/5 348/5/5
f 353/5/5 349/5/5 352/5/5
f 356/5/5 355/5/5 354/5/5
f 357/5/5 355/5/5 356/5/5
f 361/4/5 359/4/5 358/4/5
f 362/5/5 360/5/5 359/5/5
f 362/4/5 359/4/5 361/4/5
f 363/5/5 360/5/5 362/5/5
f 368/6/5 365/6/5 364/6/5
f 369/7/5 366/7/5 365/7/5
f 369/6/5 365/6/5 368/6/5
f 370/7/5 366/7/5 369/7/5
f 372/7/5 368/7/5 367/7/5
f 373/7/5 368/7/5 372/7/5
f 375/7/5 371/7/5 370/7/5
f 376/7/5 371/7/5 375/7/5
f 377/6/5 374/6/5 373/6/5
f 378/7/5 375/7/5 374/7/5
f 378/6/5 374/6/5 377/6/5
f 379/7/5 375/7/5 378/7/5
f 384/6/5 381/6/5 380/6/5
f 385/6/5 381/6/5 384/6/5
f 386/7/5 383/7/5 382/7/5
f 387/7/5 383/7/5 386/7/5
f 392/6/5 389/6/5 388/6/5
f 393/6/5 389/6/5 392/6/5
f 394/7/5 391/7/5 390/7/5
f 395/7/5 391/7/5 394/7/5
f 399/7/5 397/7/5 396/7/5
f 400/6/5 398/6/5 397/6/5
f 400/7/5 397/7/5 399/7/5
f 401/6/5 398/6/5 400/6/5
f 406/7/5 403/7/5 402/7/5
f 407/7/5 403/7/5 406/7/5
f 408/6/5 407/6/5 406/6/5
f 409/6/5 407/6/5 408/6/5
f 410/7/5 405/7/5 404/7/5
f 411/7/5 405/7/5 410/7/5
f 414/7/5 413/7/5 412/7/5
f 415/7/5 413/7/5 414/7/5
f 416/5/6 417/5/6 418/5/6
f 418/5/6 417/5/6 419/5/6
f 416/5/6 418/5/6 422/5/6
f 418/4/6 419/4/6 423/4/6
f 422/5/6 418/5/6 423/5/6
f 423/4/6 419/4/6 424/4/6
f 420/5/6 421/5/6 427/5/6
f 427/5/6 421/5/6 428/5/6
f 425/5/6 426/5/6 429/5/6
f 429/5/6 426/5/6 430/5/6
f 431/5/6 432/5/6 434/5/6
f 432/5/6 433/5/6 434/5/6
f 434/5/6 433/5/6 435/5/6
f 436/5/6 437/5/6 438/5/6
f 438/5/6 437/5/6 439/5/6
f 440/7/6 441/7/6 443/7/6
f 441/6/6 442/6/6 443/6/6
f 443/6/6 442/6/6 444/6/6
f 444/6/6 442/6/6 445/6/6
f 440/7/6 443/7/6 448/7/6
f 448/7/6 443/7/6 449/7/6
f 445/7/6 446/7/6 450/7/6
f 450/7/6 446/7/6 451/7/6
f 447/7/6 448/7/6 453/7/6
f 453/7/6 448/7/6 454/7/6
f 453/6/6 454/6/6 455/6/6
f 455/6/6 454/6/6 456/6/6
f 451/7/6 452/7/6 459/7/6
f 459/7/6 452/7/6 460/7/6
f 456/7/6 457/7/6 461/7/6
f 461/7/6 457/7/6 462/7/6
f 458/7/6 459/7/6 463/7/6
f 463/7/6 459/7/6 464/7/6
f 462/7/6 463/7/6 465/7/6
f 465/7/6 463/7/6 466/7/6
f 467/6/6 468/6/6 471/6/6
f 468/7/6 469/7/6 472/7/6
f 471/6/6 468/6/6 472/6/6
f 472/7/6 469/7/6 473/7/6
f 470/7/6 471/7/6 475/7/6
f 471/7/6 472/7/6 475/7/6
f 472/7/6 473/7/6 475/7/6
f 475/7/6 473/7/6 476/7/6
f 475/6/6 476/6/6 477/6/6
f 476/7/6 473/7/6 478/7/6
f 477/6/6 476/6/6 478/6/6
f 473/6/6 474/6/6 479/6/6
f 478/7/6 473/7/6 479/7/6
f 479/6/6 474/6/6 480/6/6
f 478/7/6 479/7/6 481/7/6
f 481/7/6 479/7/6 482/7/6
